# AST/ASF file generated using VICON BodyLanguage
# -----------------------------------------------
:version 1.10
:name VICON
:units
  mass 1.0
  length 0.45
  angle deg
:documentation
   .ast/.asf automatically generated from VICON data using
   VICON BodyBuilder and BodyLanguage model FoxedUp or BRILLIANT.MOD
:root
   order TX TY TZ RX RY RZ
   axis XYZ
   position 0 0 0  
   orientation 0 0 0 
:bonedata
  begin
     id 1 
     name lhipjoint
     direction 0.734343 -0.627749 0.258209 
     length 2.5437 
     axis 0 0 0  XYZ
  end
  begin
     id 2 
     name lfemur
     direction 0.34202 -0.939693 0  
     length 6.7391  
     axis 0 0 20  XYZ
    dof rx ry rz
    limits (-160.0 20.0)
           (-70.0 70.0)
           (-60.0 70.0)
  end
  begin
     id 3 
     name ltibia
     direction 0.34202 -0.939693 0   
     length 7.21536   
     axis 0 0 20   XYZ
    dof rx
    limits (-10.0 170.0)
  end
  begin
     id 4 
     name lfoot
     direction 0.0489572 -0.134509 0.989702   
     length 1.61313   
     axis -90 7.62852e-016 20   XYZ
    dof rx rz
    limits (-45.0 90.0)
           (-70.0 20.0)
  end
  begin
     id 5 
     name ltoes
     direction 1.53451e-011 -4.21692e-011 1   
     length 0.823104   
     axis -90 7.62852e-016 20   XYZ
    dof rx
    limits (-90.0 20.0)
  end
  begin
     id 6 
     name rhipjoint
     direction -0.746398 -0.615468 0.253157   
     length 2.59446  
     axis 0 0 0  XYZ 
  end
  begin
     id 7 
     name rfemur
     direction -0.34202 -0.939693 0   
     length 6.7075   
     axis 0 0 -20   XYZ
    dof rx ry rz
    limits (-160.0 20.0)
           (-70.0 70.0)
           (-70.0 60.0)
  end
  begin
     id 8 
     name rtibia
     direction -0.34202 -0.939693 0   
     length 7.27262   
     axis 0 0 -20   XYZ
    dof rx
    limits (-10.0 170.0)
 end
 begin
     id 9 
     name rfoot
     direction -0.0455203 -0.125066 0.991104   
     length 1.91095  
     axis -90 -7.62852e-016 -20   XYZ
    dof rx rz
    limits (-45.0 90.0)
           (-20.0 70.0)
  end
  begin
     id 10 
     name rtoes
     direction -1.53601e-011 -4.21913e-011 1   
     length 0.969037   
     axis -90 -7.62852e-016 -20   XYZ
    dof rx
    limits (-90.0 20.0)
  end
  begin
     id 11 
     name lowerback
     direction 0.0181546 0.999122 -0.0377542   
     length 1.99916   
     axis 0 0 0   XYZ
    dof rx ry rz
    limits (-20.0 45.0)
           (-30.0 30.0)
           (-30.0 30.0)
  end
  begin
     id 12 
     name upperback
     direction 0.0203486 0.99589 0.0882534   
     length 1.951   
     axis 0 0 0   XYZ
    dof rx ry rz
    limits (-20.0 45.0)
           (-30.0 30.0)
           (-30.0 30.0)
  end
  begin
     id 13 
     name thorax
     direction 0.0131685 0.994241 0.106355   
     length 1.97461   
     axis 0 0 0   XYZ
    dof rx ry rz
    limits (-20.0 45.0)
           (-30.0 30.0)
           (-30.0 30.0)
  end
  begin
     id 14 
     name lowerneck
     direction -0.0281395 0.999325 0.023617   
     length 1.7959   
     axis 0 0 0   XYZ
    dof rx ry rz
    limits (-20.0 45.0)
           (-30.0 30.0)
           (-30.0 30.0)
  end
  begin
     id 15 
     name upperneck
     direction 0.0288721 0.991984 -0.123019   
     length 1.79917   
     axis 0 0 0   XYZ
    dof rx ry rz
    limits (-20.0 45.0)
           (-30.0 30.0)
           (-30.0 30.0)
  end
  begin
     id 16
     name head
     direction 0.0133797 0.998944 -0.0439492  
     length 1.80902  
     axis 0 0 0   XYZ
    dof rx ry rz
    limits (-20.0 45.0)
           (-30.0 30.0)
           (-30.0 30.0)
  end
  begin
     id 17 
     name lclavicle
     direction 0.919195 0.377107 0.113449  
     length 3.17815  
     axis 0 0 0   XYZ
    dof ry rz
    limits (-20.0 10.0)
           (0.0 20.0)
  end
  begin
     id 18 
     name lhumerus
     direction 1 -4.48959e-011 2.13129e-027   
     length 4.84137   
     axis 180 -30 -90   XYZ
    dof rx ry rz
    limits (-60.0 90.0)
           (-90.0 90.0)
           (-90.0 90.0)
  end
  begin
     id 19
     name lradius
     direction 1 -4.48957e-011 -6.30627e-028   
     length 3.2452   
     axis 180 -30 -90   XYZ
    dof rx
    limits (-10.0 170.0)
  end
  begin
     id 20
     name lwrist
     direction 1 -4.4901e-011 9.13299e-027   
     length 1.6226   
     axis -6.84618e-015 90 90   XYZ
    dof ry
    limits (-180.0 0.0)
 end
  begin
     id 21 
     name lhand
     direction 1 -4.48816e-011 1.82293e-026   
     length 0.521221   
     axis -1.16502e-014 90 90   XYZ
    dof rx rz
    limits (-90.0 90.0)
           (-45.0 45.0)
  end
  begin
     id 22 
     name lfingers
     direction 1 -4.49108e-011 3.65687e-026   
     length 0.420221   
     axis -2.33008e-014 90 90   XYZ
    dof rx
    limits (0.0 90.0)
  end
  begin
     id 23
     name lthumb
     direction 0.707107 -6.34943e-011 0.707107   
     length 0.603356   
     axis -90 45 5.69224e-014   XYZ
    dof rx rz
    limits (-45.0 45.0)
           (-45.0 45.0)
  end
  begin
     id 24 
     name rclavicle
     direction -0.90847 0.38596 0.160368   
     length 3.12973  
     axis 0 0 0   XYZ 
    dof ry rz
    limits (-10.0 20.0)
           (-20.0 0.0)
  end
  begin
     id 25 
     name rhumerus
     direction -1 -4.48974e-011 4.47268e-028  
     length 4.72284   
     axis 180 30 90   XYZ
    dof rx ry rz
    limits (-90.0 60.0)
           (-90.0 90.0)
           (-90.0 90.0)
  end
  begin
     id 26 
     name rradius
     direction -1 -4.48969e-011 3.43203e-027   
     length 3.23459   
     axis 180 30 90   XYZ
    dof rx
    limits (-10.0 170.0)
  end
  begin
     id 27 
     name rwrist
     direction -1 -4.48969e-011 9.12911e-027   
     length 1.6173   
     axis -6.84618e-015 -90 -90   XYZ
    dof ry
    limits (-180.0 0.0)
  end
  begin
     id 28
     name rhand
     direction -1 -4.49194e-011 1.83006e-026   
     length 0.307416   
     axis -1.16502e-014 -90 -90   XYZ
    dof rx rz
    limits (-90.0 90.0)
           (-45.0 45.0)
  end
  begin
     id 29
     name rfingers
     direction -1 -4.48423e-011 3.63103e-026   
     length 0.247847   
     axis -2.33008e-014 -90 -90   XYZ
    dof rx
    limits (0.0 90.0)
  end
  begin
     id 30
     name rthumb
     direction -0.707107 -6.34802e-011 0.707107   
     length 0.35586   
     axis -90 -45 -5.69224e-014   XYZ
    dof rx rz
    limits (-45.0 45.0)
           (-45.0 45.0)
  end
:hierarchy
  begin
    root lhipjoint rhipjoint lowerback
    lhipjoint lfemur
    lfemur ltibia
    ltibia lfoot
    lfoot ltoes
    rhipjoint rfemur
    rfemur rtibia
    rtibia rfoot
    rfoot rtoes
    lowerback upperback
    upperback thorax
    thorax lowerneck lclavicle rclavicle
    lowerneck upperneck
    upperneck head
    lclavicle lhumerus
    lhumerus lradius
    lradius lwrist
    lwrist lhand lthumb
    lhand lfingers
    rclavicle rhumerus
    rhumerus rradius
    rradius rwrist
    rwrist rhand rthumb
    rhand rfingers
  end

#!OML:ASF H:\Terrain\Patient Classification 1\Animal1\Tuesday\Animal1.ASF
:FULLY-SPECIFIED
:DEGREES
95
root 11.3293 15.9455 -9.96983 7.21929 11.098 1.46339
lowerback 1.43677 2.20815 7.38174
upperback 2.06505 2.94985 3.02239
thorax 1.54295 1.55821 -1.00523
lowerneck 2.56576 16.1018 1.84303
upperneck -24.5905 21.589 -6.67815
head -7.0526 10.8469 -3.72074
rclavicle -7.55382e-015 -6.36111e-015
rhumerus 8.81413 32.338 -61.5686
rradius 42.9157
rwrist -17.3881
rhand -17.8008 25.2923
rfingers 7.12502
rthumb 8.46255 -4.51812
lclavicle -7.55382e-015 -6.36111e-015
lhumerus 12.1042 -38.7488 71.1662
lradius 48.1582
lwrist -24.672
lhand 13.7345 36.6408
lfingers 7.12502
lthumb 38.6591 62.2576
rfemur -27.1797 0.637124 15.1547
rtibia 43.22
rfoot -15.3399 -25.6635
rtoes -8.20485
lfemur -27.3162 -2.58804 -14.4478
ltibia 38.0947
lfoot -18.0922 4.91447
ltoes -15.2362
96
root 11.321 15.9482 -9.96888 7.13919 11.2771 1.62063
lowerback 1.5094 2.2563 7.44078
upperback 2.01063 3.02562 2.96056
thorax 1.4579 1.59376 -1.10557
lowerneck 2.40404 16.3267 2.06942
upperneck -24.1744 21.9053 -6.65346
head -6.8545 10.9877 -3.70163
rclavicle -8.11041e-014 -3.97569e-014
rhumerus 8.48769 32.1693 -61.8094
rradius 42.9472
rwrist -17.0847
rhand -18.3336 25.2418
rfingers 7.12502
rthumb 7.9484 -4.58876
lclavicle -8.11041e-014 -3.97569e-014
lhumerus 12.014 -38.9147 71.2853
lradius 48.0642
lwrist -24.7035
lhand 13.7619 36.6461
lfingers 7.12502
lthumb 38.685 62.2556
rfemur -27.0492 0.551945 15.0304
rtibia 43.3305
rfoot -15.714 -25.7891
rtoes -7.41063
lfemur -27.1451 -2.72802 -14.5883
ltibia 37.9499
lfoot -18.0416 4.97339
ltoes -15.2021
97
root 11.3115 15.9488 -9.96879 7.14868 11.4706 2.08875
lowerback 1.52219 2.30003 7.22016
upperback 2.01388 3.08474 2.79647
thorax 1.45489 1.62146 -1.15298
lowerneck 3.05887 16.4515 2.4893
upperneck -24.8584 22.0283 -7.34692
head -7.04572 11.0647 -4.06154
rclavicle 5.92378e-014 1.74931e-014
rhumerus 8.21473 32.0149 -61.9836
rradius 43.0796
rwrist -16.8851
rhand -18.6905 25.2942
rfingers 7.12502
rthumb 7.60393 -4.54913
lclavicle 5.92378e-014 1.74931e-014
lhumerus 12.2311 -39.0948 71.2017
lradius 47.9287
lwrist -24.7121
lhand 13.8993 36.6698
lfingers 7.12502
lthumb 38.8146 62.2426
rfemur -26.9975 0.376248 14.5652
rtibia 43.5037
rfoot -16.0668 -25.8191
rtoes -5.97809
lfemur -26.9709 -2.94679 -15.062
ltibia 37.7314
lfoot -17.9814 5.02074
ltoes -15.1621
98
root 11.2992 15.9475 -9.97211 7.17929 11.6247 2.39125
lowerback 1.48355 2.34407 7.07926
upperback 2.07632 3.1353 2.74139
thorax 1.53994 1.64872 -1.12777
lowerneck 3.11632 16.5509 2.50867
upperneck -24.957 22.1268 -7.59893
head -7.04851 11.1343 -4.14976
rclavicle -2.90226e-014 -6.36111e-015
rhumerus 8.26645 31.9235 -61.9109
rradius 43.1441
rwrist -16.8843
rhand -18.8145 25.1348
rfingers 7.12502
rthumb 7.48417 -4.71281
lclavicle -2.90226e-014 -6.36111e-015
lhumerus 12.6715 -39.2161 71.0181
lradius 47.6996
lwrist -24.718
lhand 14.3011 36.6524
lfingers 7.12502
lthumb 39.1933 62.1168
rfemur -27.0358 0.259059 14.2798
rtibia 43.656
rfoot -16.366 -25.6354
rtoes -4.19184
lfemur -26.9002 -3.05569 -15.349
ltibia 37.512
lfoot -17.7862 5.0227
ltoes -15.5598
99
root 11.2901 15.9464 -9.97453 7.12438 11.6255 2.45537
lowerback 1.49239 2.42177 7.1965
upperback 2.10898 3.23795 2.71749
thorax 1.58479 1.70357 -1.21499
lowerneck 2.7931 16.7189 2.45806
upperneck -24.4101 22.3623 -7.4146
head -6.83473 11.246 -4.02381
rclavicle 3.1408e-014 0
rhumerus 8.24069 31.7386 -62.0131
rradius 43.145
rwrist -16.7309
rhand -18.4022 25.1067
rfingers 7.12502
rthumb 7.88217 -4.72633
lclavicle 3.1408e-014 0
lhumerus 12.8983 -39.2918 70.9377
lradius 47.4588
lwrist -24.7062
lhand 14.9421 37.1279
lfingers 7.12502
lthumb 39.7971 62.4148
rfemur -27.0124 0.339429 14.2305
rtibia 43.7139
rfoot -16.4545 -25.5132
rtoes -3.4084
lfemur -26.7966 -3.04401 -15.3987
ltibia 37.3656
lfoot -17.6229 5.15007
ltoes -16.7993
100
root 11.2836 15.9487 -9.9747 7.00799 11.614 2.29743
lowerback 1.54609 2.52627 7.57276
upperback 2.0626 3.38647 2.75522
thorax 1.53913 1.78026 -1.38538
lowerneck 3.10505 16.8606 2.63421
upperneck -24.3829 22.5387 -7.63571
head -6.81961 11.3372 -4.13787
rclavicle 3.4191e-014 -1.11319e-014
rhumerus 7.91056 31.5634 -62.1877
rradius 43.2385
rwrist -16.5995
rhand -17.8829 25.3716
rfingers 7.12502
rthumb 8.38338 -4.44204
lclavicle 3.4191e-014 -1.11319e-014
lhumerus 12.869 -39.4979 70.9685
lradius 47.4534
lwrist -24.6379
lhand 16.1278 38.177
lfingers 7.12502
lthumb 40.9122 63.1212
rfemur -26.8803 0.509365 14.4278
rtibia 43.6406
rfoot -16.1377 -25.8295
rtoes -4.75546
lfemur -26.7059 -3.01152 -15.2044
ltibia 37.3401
lfoot -17.6679 5.15531
ltoes -16.7431
101
root 11.2756 15.9528 -9.97424 6.90562 11.6846 2.10197
lowerback 1.66132 2.65148 7.96619
upperback 2.01652 3.56952 2.85545
thorax 1.46097 1.87256 -1.5036
lowerneck 3.2598 16.9662 2.6298
upperneck -24.4392 22.656 -7.82829
head -6.83327 11.4107 -4.21372
rclavicle -3.4191e-014 -4.13472e-014
rhumerus 7.74355 31.4889 -62.0192
rradius 43.3369
rwrist -16.9078
rhand -17.6631 25.671
rfingers 7.12502
rthumb 8.59546 -4.13406
lclavicle -3.4191e-014 -4.13472e-014
lhumerus 12.899 -39.7517 71.1352
lradius 47.5277
lwrist -24.5824
lhand 16.8613 38.4606
lfingers 7.12502
lthumb 41.6007 63.183
rfemur -26.7125 0.590096 14.6818
rtibia 43.4863
rfoot -15.9335 -26.1219
rtoes -5.3092
lfemur -26.6762 -3.05869 -14.9508
ltibia 37.3873
lfoot -17.7535 5.13171
ltoes -16.1588
102
root 11.2645 15.9523 -9.9772 6.86805 11.7703 1.91002
lowerback 1.75476 2.74998 8.34278
upperback 1.95902 3.71685 2.92553
thorax 1.38255 1.94637 -1.64317
lowerneck 3.27831 17.134 2.65068
upperneck -24.3437 22.8578 -7.98982
head -6.77167 11.5239 -4.25905
rclavicle -3.33958e-014 -1.74931e-014
rhumerus 7.67398 31.3761 -61.9454
rradius 43.4164
rwrist -17.3018
rhand -17.4584 25.922
rfingers 7.12502
rthumb 8.79296 -3.87488
lclavicle -3.33958e-014 -1.74931e-014
lhumerus 12.8969 -39.8724 71.264
lradius 47.5732
lwrist -24.6423
lhand 16.8772 38.0792
lfingers 7.12502
lthumb 41.6156 62.7967
rfemur -26.658 0.682762 14.9327
rtibia 43.3425
rfoot -16.0219 -26.2006
rtoes -5.29361
lfemur -26.7484 -3.12343 -14.6854
ltibia 37.4233
lfoot -17.7305 5.1569
ltoes -16.6715
103
root 11.2524 15.9514 -9.98162 6.89208 11.863 1.73784
lowerback 1.68147 2.81599 8.72604
upperback 1.93184 3.80061 2.96038
thorax 1.42764 1.99343 -1.81237
lowerneck 3.36218 17.2852 2.59153
upperneck -24.2975 23.042 -8.10415
head -6.75351 11.6289 -4.29385
rclavicle 5.92378e-014 -1.59028e-014
rhumerus 7.41946 31.2374 -62.0788
rradius 43.6563
rwrist -17.4995
rhand -17.5834 25.9311
rfingers 7.12502
rthumb 8.67242 -3.87074
lclavicle 5.92378e-014 -1.59028e-014
lhumerus 13.0237 -39.9225 71.1272
lradius 47.558
lwrist -24.8389
lhand 17.2465 37.5038
lfingers 7.12502
lthumb 41.9619 62.1066
rfemur -26.7126 0.794561 15.1651
rtibia 43.2764
rfoot -15.9343 -26.2795
rtoes -6.17926
lfemur -26.8515 -3.26932 -14.4228
ltibia 37.3696
lfoot -17.6634 5.23365
ltoes -17.0556
104
root 11.2426 15.9559 -9.97984 6.91055 11.9556 1.84049
lowerback 1.48753 2.89285 8.82184
upperback 2.00635 3.87492 2.94429
thorax 1.62954 2.04061 -1.86569
lowerneck 3.2744 17.4262 2.44214
upperneck -24.2053 23.2338 -8.04863
head -6.72583 11.7294 -4.25207
rclavicle 1.23246e-014 -2.06736e-014
rhumerus 7.24704 31.2332 -61.9942
rradius 43.9756
rwrist -17.8331
rhand -18.0101 25.832
rfingers 7.12502
rthumb 8.26055 -3.98648
lclavicle 1.23246e-014 -2.06736e-014
lhumerus 13.3508 -39.9817 70.9786
lradius 47.4434
lwrist -24.9679
lhand 16.3168 36.6614
lfingers 7.12502
lthumb 41.0897 61.5492
rfemur -26.6794 0.784185 15.0933
rtibia 43.2788
rfoot -16.3505 -26.132
rtoes -4.73935
lfemur -26.7771 -3.5709 -14.462
ltibia 37.2342
lfoot -17.5244 5.3935
ltoes -16.6255
